<?xml version="1.0" encoding="UTF-8"?>
<!-- PEELBEAST sprite. Generated by scripts/sprite-sources.mjs; safe to hand-edit.
     Replace this file and run `npm run assets:sprites` to update the raster. -->
<svg xmlns="http://www.w3.org/2000/svg" viewBox="0 0 342 322" width="342" height="322">
  <defs>

  <filter id="kiss" x="-30%" y="-30%" width="160%" height="170%" color-interpolation-filters="sRGB">
    <feTurbulence type="fractalNoise" baseFrequency="0.035" numOctaves="2" seed="48" result="noise"/>
    <feDisplacementMap in="SourceAlpha" in2="noise" scale="7" xChannelSelector="R" yChannelSelector="G" result="wob"/>
    <feMorphology in="wob" operator="dilate" radius="8" result="spread"/>
    <feFlood flood-color="#fdfaf1" result="cutColor"/>
    <feComposite in="cutColor" in2="spread" operator="in" result="border"/>
    <feOffset in="spread" dx="0" dy="6" result="shOff"/>
    <feGaussianBlur in="shOff" stdDeviation="7.2" result="shBlur"/>
    <feFlood flood-color="#3a2517" flood-opacity="0.3" result="shColor"/>
    <feComposite in="shColor" in2="shBlur" operator="in" result="shadow"/>
    <feMerge>
      <feMergeNode in="shadow"/>
      <feMergeNode in="border"/>
      <feMergeNode in="SourceGraphic"/>
    </feMerge>
  </filter>

  <filter id="grain" x="0%" y="0%" width="100%" height="100%" color-interpolation-filters="sRGB">
    <feTurbulence type="fractalNoise" baseFrequency="0.9" numOctaves="3" seed="59" result="n"/>
    <feColorMatrix in="n" type="saturate" values="0" result="g"/>
  </filter>

  </defs>
  <g filter="url(#kiss)">

    <path d="M56 168 C 20 130, 34 78, 76 84 C 60 46, 104 22, 130 52 C 150 22, 196 30, 196 68 C 232 60, 252 100, 224 128 Z" fill="#4a4d55" stroke="#3a2b1e" stroke-width="4" stroke-linejoin="round" stroke-linecap="round" opacity="1" />
    <path d="M92 150 C 92 96, 140 66, 186 66 C 236 66, 272 106, 268 164 C 264 226, 220 268, 170 268 C 118 268, 92 214, 92 150 Z" fill="#3f434b" stroke="#3a2b1e" stroke-width="4" stroke-linejoin="round" stroke-linecap="round" opacity="1" />
    <path d="M264 176 C 300 178, 322 214, 314 258 C 290 240, 268 236, 254 240 Z" fill="#33363d" stroke="#3a2b1e" stroke-width="3.5" stroke-linejoin="round" stroke-linecap="round" opacity="1" />
    <path d="M104 196 C 76 208, 62 244, 74 278 C 96 254, 118 246, 132 248 Z" fill="#33363d" stroke="#3a2b1e" stroke-width="3.5" stroke-linejoin="round" stroke-linecap="round" opacity="1" />
    <circle cx="146" cy="128" r="15" fill="#fbf4e2" stroke="#3a2b1e" stroke-width="3.5" opacity="1"/>
    <circle cx="212" cy="128" r="15" fill="#fbf4e2" stroke="#3a2b1e" stroke-width="3.5" opacity="1"/>
    <circle cx="148" cy="130" r="7" fill="#3a2b1e" stroke="none" stroke-width="3.5" opacity="1"/>
    <circle cx="214" cy="130" r="7" fill="#3a2b1e" stroke="none" stroke-width="3.5" opacity="1"/>
    <!-- scissor beak -->
    <path d="M180 158 L 262 132 L 268 148 L 186 174 Z" fill="#c3c8cb" stroke="#3a2b1e" stroke-width="3" stroke-linejoin="round" stroke-linecap="round" opacity="1" />
    <path d="M180 168 L 260 194 L 254 210 L 174 182 Z" fill="#c3c8cb" stroke="#3a2b1e" stroke-width="3" stroke-linejoin="round" stroke-linecap="round" opacity="1" />
    <circle cx="180" cy="170" r="8" fill="#8e979d" stroke="#3a2b1e" stroke-width="3" opacity="1"/>
    <ellipse cx="150" cy="176" rx="13" ry="11" fill="none" stroke="#b4533b" stroke-width="4" opacity="1" transform="rotate(-18 150 176)"/>
    <!-- patched wound -->
    <path d="M116 208 L 154 200 L 158 220 L 120 228 Z" fill="#fbf4e2" stroke="#a06e35" stroke-width="3" stroke-linejoin="round" stroke-linecap="round" opacity="1" />
    <line x1="122" y1="206" x2="152" y2="222" stroke="#8e3c28" stroke-width="3" stroke-linecap="round" opacity="1"/>
    <line x1="152" y1="204" x2="124" y2="224" stroke="#8e3c28" stroke-width="3" stroke-linecap="round" opacity="1"/>
    <path d="M166 264 L 160 296" fill="none" stroke="#3a2b1e" stroke-width="15" stroke-linecap="round" stroke-linejoin="round"/><path d="M166 264 L 160 296" fill="none" stroke="#c4a05c" stroke-width="8" stroke-linecap="round" stroke-linejoin="round"/>
    <path d="M198 264 L 204 296" fill="none" stroke="#3a2b1e" stroke-width="15" stroke-linecap="round" stroke-linejoin="round"/><path d="M198 264 L 204 296" fill="none" stroke="#c4a05c" stroke-width="8" stroke-linecap="round" stroke-linejoin="round"/>
    <path d="M144 300 L 176 296 L 160 288 Z" fill="#c4a05c" stroke="#3a2b1e" stroke-width="2.5" stroke-linejoin="round" stroke-linecap="round" opacity="1" />
    <path d="M188 300 L 220 296 L 204 288 Z" fill="#c4a05c" stroke="#3a2b1e" stroke-width="2.5" stroke-linejoin="round" stroke-linecap="round" opacity="1" />
  
  </g>
</svg>
