<?xml version="1.0" encoding="UTF-8"?>
<!-- PEELBEAST sprite. Generated by scripts/sprite-sources.mjs; safe to hand-edit.
     Replace this file and run `npm run assets:sprites` to update the raster. -->
<svg xmlns="http://www.w3.org/2000/svg" viewBox="0 0 224 194" width="224" height="194">
  <defs>

  <filter id="kiss" x="-30%" y="-30%" width="160%" height="170%" color-interpolation-filters="sRGB">
    <feTurbulence type="fractalNoise" baseFrequency="0.035" numOctaves="2" seed="27" result="noise"/>
    <feDisplacementMap in="SourceAlpha" in2="noise" scale="5" xChannelSelector="R" yChannelSelector="G" result="wob"/>
    <feMorphology in="wob" operator="dilate" radius="7" result="spread"/>
    <feFlood flood-color="#fdfaf1" result="cutColor"/>
    <feComposite in="cutColor" in2="spread" operator="in" result="border"/>
    <feOffset in="spread" dx="0" dy="6" result="shOff"/>
    <feGaussianBlur in="shOff" stdDeviation="6.3" result="shBlur"/>
    <feFlood flood-color="#3a2517" flood-opacity="0.3" result="shColor"/>
    <feComposite in="shColor" in2="shBlur" operator="in" result="shadow"/>
    <feMerge>
      <feMergeNode in="shadow"/>
      <feMergeNode in="border"/>
      <feMergeNode in="SourceGraphic"/>
    </feMerge>
  </filter>

  <filter id="grain" x="0%" y="0%" width="100%" height="100%" color-interpolation-filters="sRGB">
    <feTurbulence type="fractalNoise" baseFrequency="0.9" numOctaves="3" seed="38" result="n"/>
    <feColorMatrix in="n" type="saturate" values="0" result="g"/>
  </filter>

  </defs>
  <g filter="url(#kiss)">

    <path d="M40 52 L 156 52 L 144 158 C 142 172, 54 172, 52 158 Z" fill="#fbf4e2" stroke="#3a2b1e" stroke-width="4" stroke-linejoin="round" stroke-linecap="round" opacity="1" />
    <path d="M156 70 C 196 66, 204 122, 158 128" fill="none" stroke="#3a2b1e" stroke-width="13" stroke-linejoin="round" stroke-linecap="round" opacity="1" />
    <path d="M156 70 C 192 68, 198 120, 158 124" fill="none" stroke="#fbf4e2" stroke-width="8" stroke-linejoin="round" stroke-linecap="round" opacity="1" />
    <ellipse cx="98" cy="54" rx="58" ry="14" fill="#5a3d24" stroke="#3a2b1e" stroke-width="3.5" opacity="1"/>
    <ellipse cx="98" cy="54" rx="48" ry="9" fill="#7a5230" stroke="none" stroke-width="3.5" opacity="1"/>
    <ellipse cx="98" cy="116" rx="22" ry="24" fill="#6b4526" stroke="#3a2b1e" stroke-width="3" opacity="1"/>
    <line x1="98" y1="96" x2="98" y2="136" stroke="#fbf4e2" stroke-width="4" stroke-linecap="round" opacity="1"/>
    <path d="M132 60 L 144 60 L 134 158 C 132 166, 118 168, 116 166 Z" fill="#000" opacity="0.1"/>
    <!-- steam -->
    <path d="M74 34 C 84 22, 66 16, 76 4" fill="none" stroke="#c9b48c" stroke-width="4" stroke-linejoin="round" stroke-linecap="round" opacity="0.85" />
    <path d="M118 34 C 128 22, 110 16, 120 4" fill="none" stroke="#c9b48c" stroke-width="4" stroke-linejoin="round" stroke-linecap="round" opacity="0.85" />
  
  </g>
</svg>
