<?xml version="1.0" encoding="UTF-8"?>
<!-- PEELBEAST sprite. Generated by scripts/sprite-sources.mjs; safe to hand-edit.
     Replace this file and run `npm run assets:sprites` to update the raster. -->
<svg xmlns="http://www.w3.org/2000/svg" viewBox="0 0 212 234" width="212" height="234">
  <defs>

  <filter id="kiss" x="-30%" y="-30%" width="160%" height="170%" color-interpolation-filters="sRGB">
    <feTurbulence type="fractalNoise" baseFrequency="0.035" numOctaves="2" seed="12" result="noise"/>
    <feDisplacementMap in="SourceAlpha" in2="noise" scale="7" xChannelSelector="R" yChannelSelector="G" result="wob"/>
    <feMorphology in="wob" operator="dilate" radius="7" result="spread"/>
    <feFlood flood-color="#fdfaf1" result="cutColor"/>
    <feComposite in="cutColor" in2="spread" operator="in" result="border"/>
    <feOffset in="spread" dx="0" dy="6" result="shOff"/>
    <feGaussianBlur in="shOff" stdDeviation="6.3" result="shBlur"/>
    <feFlood flood-color="#3a2517" flood-opacity="0.3" result="shColor"/>
    <feComposite in="shColor" in2="shBlur" operator="in" result="shadow"/>
    <feMerge>
      <feMergeNode in="shadow"/>
      <feMergeNode in="border"/>
      <feMergeNode in="SourceGraphic"/>
    </feMerge>
  </filter>

  <filter id="grain" x="0%" y="0%" width="100%" height="100%" color-interpolation-filters="sRGB">
    <feTurbulence type="fractalNoise" baseFrequency="0.9" numOctaves="3" seed="23" result="n"/>
    <feColorMatrix in="n" type="saturate" values="0" result="g"/>
  </filter>

  </defs>
  <g filter="url(#kiss)">

    <path d="M30 128 C 30 62, 74 22, 106 22 C 138 22, 182 62, 182 128 L 182 196 L 162 178 L 142 202 L 120 178 L 98 202 L 76 178 L 54 200 L 30 178 Z" fill="#fbf8f0" stroke="#3a2b1e" stroke-width="4" stroke-linejoin="round" stroke-linecap="round" opacity="1" />
    <circle cx="84" cy="116" r="12" fill="#3a2b1e" stroke="none" stroke-width="3.5" opacity="1"/>
    <circle cx="130" cy="116" r="12" fill="#3a2b1e" stroke="none" stroke-width="3.5" opacity="1"/>
    <ellipse cx="107" cy="152" rx="11" ry="14" fill="#3a2b1e" stroke="none" stroke-width="3.5" opacity="1"/>
    <path d="M148 60 C 176 88, 182 140, 182 196 L 162 178 L 148 196 Z" fill="#5b6a80" opacity="0.16"/>
    <circle cx="64" cy="140" r="8" fill="#b4533b" stroke="none" stroke-width="3.5" opacity="0.28"/>
    <circle cx="150" cy="140" r="8" fill="#b4533b" stroke="none" stroke-width="3.5" opacity="0.28"/>
  
  </g>
</svg>
