<?xml version="1.0" encoding="UTF-8"?>
<!-- PEELBEAST sprite. Generated by scripts/sprite-sources.mjs; safe to hand-edit.
     Replace this file and run `npm run assets:sprites` to update the raster. -->
<svg xmlns="http://www.w3.org/2000/svg" viewBox="0 0 262 274" width="262" height="274">
  <defs>

  <filter id="kiss" x="-30%" y="-30%" width="160%" height="170%" color-interpolation-filters="sRGB">
    <feTurbulence type="fractalNoise" baseFrequency="0.035" numOctaves="2" seed="21" result="noise"/>
    <feDisplacementMap in="SourceAlpha" in2="noise" scale="5" xChannelSelector="R" yChannelSelector="G" result="wob"/>
    <feMorphology in="wob" operator="dilate" radius="7" result="spread"/>
    <feFlood flood-color="#fdfaf1" result="cutColor"/>
    <feComposite in="cutColor" in2="spread" operator="in" result="border"/>
    <feOffset in="spread" dx="0" dy="6" result="shOff"/>
    <feGaussianBlur in="shOff" stdDeviation="6.3" result="shBlur"/>
    <feFlood flood-color="#3a2517" flood-opacity="0.3" result="shColor"/>
    <feComposite in="shColor" in2="shBlur" operator="in" result="shadow"/>
    <feMerge>
      <feMergeNode in="shadow"/>
      <feMergeNode in="border"/>
      <feMergeNode in="SourceGraphic"/>
    </feMerge>
  </filter>

  <filter id="grain" x="0%" y="0%" width="100%" height="100%" color-interpolation-filters="sRGB">
    <feTurbulence type="fractalNoise" baseFrequency="0.9" numOctaves="3" seed="32" result="n"/>
    <feColorMatrix in="n" type="saturate" values="0" result="g"/>
  </filter>

  </defs>
  <g filter="url(#kiss)">

    <path d="M22 132 C 22 60, 78 22, 130 22 C 182 22, 238 60, 238 132 C 214 116, 202 138, 178 138 C 154 138, 152 116, 130 116 C 108 116, 106 138, 82 138 C 58 138, 46 116, 22 132 Z" fill="#b4533b" stroke="#3a2b1e" stroke-width="4" stroke-linejoin="round" stroke-linecap="round" opacity="1" />
    <path d="M82 138 C 58 138, 46 116, 22 132 C 22 60, 78 22, 130 22 L 130 116 C 108 116, 106 138, 82 138 Z" fill="#5b7396" stroke="#3a2b1e" stroke-width="3.5" stroke-linejoin="round" stroke-linecap="round" opacity="1" />
    <path d="M130 22 C 156 22, 178 32, 194 48 C 190 96, 186 124, 178 138 C 154 138, 152 116, 130 116 Z" fill="#fbf4e2" stroke="#42566f" stroke-width="3.5" stroke-linejoin="round" stroke-linecap="round" opacity="1" />
    <circle cx="130" cy="26" r="8" fill="#c4a05c" stroke="#3a2b1e" stroke-width="3" opacity="1"/>
    <line x1="130" y1="34" x2="130" y2="214" stroke="#3a2b1e" stroke-width="11" stroke-linecap="round" opacity="1"/>
    <line x1="130" y1="34" x2="130" y2="214" stroke="#a8814d" stroke-width="6" stroke-linecap="round" opacity="1"/>
    <path d="M130 214 C 130 246, 96 254, 84 236 C 78 226, 88 216, 98 222" fill="none" stroke="#3a2b1e" stroke-width="12" stroke-linejoin="round" stroke-linecap="round" opacity="1" />
    <path d="M130 214 C 130 246, 96 254, 84 236 C 78 226, 88 216, 98 222" fill="none" stroke="#a8814d" stroke-width="7" stroke-linejoin="round" stroke-linecap="round" opacity="1" />
    <circle cx="60" cy="78" r="10" fill="#fbf4e2" stroke="#8e3c28" stroke-width="2.5" opacity="1"/>
  
  </g>
</svg>
