<?xml version="1.0" encoding="UTF-8"?>
<!-- PEELBEAST sprite. Generated by scripts/sprite-sources.mjs; safe to hand-edit.
     Replace this file and run `npm run assets:sprites` to update the raster. -->
<svg xmlns="http://www.w3.org/2000/svg" viewBox="0 0 248 232" width="248" height="232">
  <defs>

  <filter id="kiss" x="-30%" y="-30%" width="160%" height="170%" color-interpolation-filters="sRGB">
    <feTurbulence type="fractalNoise" baseFrequency="0.035" numOctaves="2" seed="6" result="noise"/>
    <feDisplacementMap in="SourceAlpha" in2="noise" scale="5" xChannelSelector="R" yChannelSelector="G" result="wob"/>
    <feMorphology in="wob" operator="dilate" radius="7" result="spread"/>
    <feFlood flood-color="#fdfaf1" result="cutColor"/>
    <feComposite in="cutColor" in2="spread" operator="in" result="border"/>
    <feOffset in="spread" dx="0" dy="6" result="shOff"/>
    <feGaussianBlur in="shOff" stdDeviation="6.3" result="shBlur"/>
    <feFlood flood-color="#3a2517" flood-opacity="0.3" result="shColor"/>
    <feComposite in="shColor" in2="shBlur" operator="in" result="shadow"/>
    <feMerge>
      <feMergeNode in="shadow"/>
      <feMergeNode in="border"/>
      <feMergeNode in="SourceGraphic"/>
    </feMerge>
  </filter>

  <filter id="grain" x="0%" y="0%" width="100%" height="100%" color-interpolation-filters="sRGB">
    <feTurbulence type="fractalNoise" baseFrequency="0.9" numOctaves="3" seed="17" result="n"/>
    <feColorMatrix in="n" type="saturate" values="0" result="g"/>
  </filter>

  </defs>
  <g filter="url(#kiss)">

    <path d="M28 96 C 28 52, 50 26, 84 22 C 96 6, 152 6, 164 22 C 198 26, 220 52, 220 96 L 220 182 C 220 202, 206 212, 184 212 L 64 212 C 42 212, 28 202, 28 182 Z" fill="#c08a4a" stroke="#3a2b1e" stroke-width="4" stroke-linejoin="round" stroke-linecap="round" opacity="1" />
    <path d="M50 100 C 50 66, 66 48, 92 44 C 102 32, 146 32, 156 44 C 182 48, 198 66, 198 100 L 198 178 C 198 190, 190 194, 176 194 L 72 194 C 58 194, 50 190, 50 178 Z" fill="#f3e0b0" stroke="#a06e35" stroke-width="3" stroke-linejoin="round" stroke-linecap="round" opacity="1" />
    <!-- cat face painted on the toast -->
    <path d="M74 104 C 74 92, 88 88, 96 96 C 104 88, 118 92, 118 104 C 118 118, 96 130, 96 130 C 96 130, 74 118, 74 104 Z" fill="#8fa2b5" stroke="none" stroke-width="0" stroke-linejoin="round" stroke-linecap="round" opacity="0" />
    <ellipse cx="96" cy="122" rx="26" ry="24" fill="#8fa2b5" stroke="none" stroke-width="0" opacity="1"/>
    <ellipse cx="152" cy="122" rx="26" ry="24" fill="#8fa2b5" stroke="none" stroke-width="0" opacity="1"/>
    <circle cx="96" cy="118" r="9" fill="#3a2b1e" stroke="none" stroke-width="3.5" opacity="1"/>
    <circle cx="152" cy="118" r="9" fill="#3a2b1e" stroke="none" stroke-width="3.5" opacity="1"/>
    <circle cx="99" cy="114" r="3.2" fill="#fff" stroke="none" stroke-width="3.5" opacity="1"/>
    <circle cx="155" cy="114" r="3.2" fill="#fff" stroke="none" stroke-width="3.5" opacity="1"/>
    <path d="M118 146 L 130 146 L 124 154 Z" fill="#b4533b" stroke="#8e3c28" stroke-width="2" stroke-linejoin="round" stroke-linecap="round" opacity="1" />
    <line x1="112" y1="160" x2="88" y2="154" stroke="#5d4632" stroke-width="2.6" stroke-linecap="round" opacity="1"/>
    <line x1="112" y1="164" x2="90" y2="168" stroke="#5d4632" stroke-width="2.6" stroke-linecap="round" opacity="1"/>
    <line x1="136" y1="160" x2="160" y2="154" stroke="#5d4632" stroke-width="2.6" stroke-linecap="round" opacity="1"/>
    <line x1="136" y1="164" x2="158" y2="168" stroke="#5d4632" stroke-width="2.6" stroke-linecap="round" opacity="1"/>
    <path d="M50 178 L 198 178 L 198 190 C 198 192, 190 194, 176 194 L 72 194 C 58 194, 50 190, 50 178 Z" fill="#8a6b3a" opacity="0.18"/>
  
  </g>
</svg>
