<?xml version="1.0" encoding="UTF-8"?>
<!-- PEELBEAST sprite. Generated by scripts/sprite-sources.mjs; safe to hand-edit.
     Replace this file and run `npm run assets:sprites` to update the raster. -->
<svg xmlns="http://www.w3.org/2000/svg" viewBox="0 0 244 156" width="244" height="156">
  <defs>

  <filter id="kiss" x="-30%" y="-30%" width="160%" height="170%" color-interpolation-filters="sRGB">
    <feTurbulence type="fractalNoise" baseFrequency="0.035" numOctaves="2" seed="60" result="noise"/>
    <feDisplacementMap in="SourceAlpha" in2="noise" scale="4" xChannelSelector="R" yChannelSelector="G" result="wob"/>
    <feMorphology in="wob" operator="dilate" radius="6" result="spread"/>
    <feFlood flood-color="#fdfaf1" result="cutColor"/>
    <feComposite in="cutColor" in2="spread" operator="in" result="border"/>
    <feOffset in="spread" dx="0" dy="5" result="shOff"/>
    <feGaussianBlur in="shOff" stdDeviation="5.4" result="shBlur"/>
    <feFlood flood-color="#3a2517" flood-opacity="0.3" result="shColor"/>
    <feComposite in="shColor" in2="shBlur" operator="in" result="shadow"/>
    <feMerge>
      <feMergeNode in="shadow"/>
      <feMergeNode in="border"/>
      <feMergeNode in="SourceGraphic"/>
    </feMerge>
  </filter>

  <filter id="grain" x="0%" y="0%" width="100%" height="100%" color-interpolation-filters="sRGB">
    <feTurbulence type="fractalNoise" baseFrequency="0.9" numOctaves="3" seed="71" result="n"/>
    <feColorMatrix in="n" type="saturate" values="0" result="g"/>
  </filter>

  </defs>
  <g filter="url(#kiss)">

    <path d="M30 96 C 30 60, 84 58, 84 92 L 84 118 C 84 132, 64 132, 64 118 L 64 78" fill="none" stroke="#8e979d" stroke-width="9" stroke-linejoin="round" stroke-linecap="round" opacity="1" />
    <path d="M104 112 C 104 70, 166 68, 166 108 L 166 132 C 166 144, 146 144, 146 132 L 146 92" fill="none" stroke="#a9b3bb" stroke-width="9" stroke-linejoin="round" stroke-linecap="round" opacity="1" />
    <path d="M176 84 C 176 52, 224 50, 224 82 L 224 106 C 224 118, 206 118, 206 106 L 206 70" fill="none" stroke="#8e979d" stroke-width="9" stroke-linejoin="round" stroke-linecap="round" opacity="1" />
    <path d="M42 128 L 96 124" fill="none" stroke="#c3ccd2" stroke-width="8" stroke-linejoin="round" stroke-linecap="round" opacity="1" />
  
  </g>
</svg>
